<?xml version="1.0" encoding="iso-8859-1"?>
<!-- Generator: Adobe Illustrator 19.0.0, SVG Export Plug-In . SVG Version: 6.00 Build 0)  -->
<svg version="1.1" id="Capa_1" xmlns="http://www.w3.org/2000/svg" xmlns:xlink="http://www.w3.org/1999/xlink" x="0px" y="0px"
	 viewBox="0 0 488.611 488.611" style="enable-background:new 0 0 488.611 488.611;" xml:space="preserve">
<g>
	<g>
		<path d="M62.9,319.455v-28v-9.8v-151.9c0,0,0-0.1,0.1-0.1h175.7h121.6c0.1,0,0.1,0,0.1,0.1v42.2c8.1-4.4,17.3-6.9,27.1-6.9h8.6
			c0.4,0,0.8,0.1,1.2,0.1v-35.3c0-20.4-16.6-37-37-37H221.9l0,0H63c-20.4,0-37,16.6-37,37v151.9v8.1v27.2c0,4.8-1.7,9.5-4.7,13.2
			l-19.1,23.4c-1.4,1.8-2.2,4-2.2,6.3v10.7c0,13.9,11.2,25.1,25.1,25.1h248.6v-27.3c0-12.1,5.4-23.5,14.7-31.2
			c8.1-6.7,16.3-12.5,24-17.7H62.9V319.455z M251.7,359.155c0,7-5.7,12.8-12.8,12.8h-54.6c-7,0-12.8-5.7-12.8-12.8v-2.7h80.1v2.7
			H251.7z"/>
		<path d="M481.8,353.355c-24.7-20.3-51.4-33.8-56.8-36.4c-0.6-0.3-1-0.9-1-1.6v-38.5c4.8-3.2,8-8.7,8-15v-39.9
			c0-19.9-16.1-36-36-36h-4.3h-4.3c-19.9,0-36,16.1-36,36v39.9c0,6.3,3.2,11.7,8,15v38.5c0,0.7-0.4,1.3-1,1.6
			c-5.4,2.7-32.1,16.1-56.8,36.4c-4.5,3.7-7,9.2-7,14.9v27.3h97h97v-27.3C488.8,362.555,486.2,357.055,481.8,353.355z"/>
		<path d="M201.4,210.355L201.4,210.355h-29.8c-5.5,0.2-10,4.7-10,10.3v56.7c0,5.7,4.6,10.3,10.3,10.3h79.2
			c5.7,0,10.3-4.6,10.3-10.3v-56.7c0-5.7-4.6-10.3-10.3-10.3h-0.3v-12.5c0-21.8-17.8-40.4-39.7-40c-21.2,0.4-38.3,17.7-38.3,39v1.2
			c0,1.8,1.5,3.3,3.3,3.3h10.5c1.8,0,3.3-1.5,3.3-3.3v-0.4c0-11.7,8.8-22,20.5-22.8c12.7-0.8,23.3,9.3,23.3,21.9v13.6H201.4z
			 M217.5,251.555c-0.8,0.6-1,1.2-1,2.1c0,4.2,0,8.3,0,12.5l0,0c0.1,1.7-0.8,3.4-2.3,4.2c-3.6,1.9-7.3-0.7-7.3-4.2l0,0
			c0-4.2,0-8.3,0-12.5c0-0.8-0.2-1.4-0.9-2c-3.8-2.8-5-7.5-3.1-11.7c1.8-4.1,6.3-6.4,10.5-5.6c4.7,0.9,8,4.7,8,9.4
			C221.5,246.955,220.1,249.655,217.5,251.555z"/>
	</g>
</g>
<g>
</g>
<g>
</g>
<g>
</g>
<g>
</g>
<g>
</g>
<g>
</g>
<g>
</g>
<g>
</g>
<g>
</g>
<g>
</g>
<g>
</g>
<g>
</g>
<g>
</g>
<g>
</g>
<g>
</g>
</svg>
