<?xml version='1.0' encoding='iso-8859-1'?>
<!DOCTYPE svg PUBLIC '-//W3C//DTD SVG 1.1//EN' 'http://www.w3.org/Graphics/SVG/1.1/DTD/svg11.dtd'>
<svg version="1.1" xmlns="http://www.w3.org/2000/svg" viewBox="0 0 512 512" xmlns:xlink="http://www.w3.org/1999/xlink" enable-background="new 0 0 512 512">
  <g>
    <path d="m496,400h-144v-384c0-8.836-7.164-16-16-16h-320c-8.836,0-16,7.164-16,16v400c0,52.938 43.063,96 96,96h320c52.938,0 96-43.063 96-96 0-8.836-7.164-16-16-16zm-336,16c0,35.289-28.711,64-64,64s-64-28.711-64-64v-384h288v368h-144c-8.836,0-16,7.164-16,16zm256,64h-248.508c11.852-13.227 20.102-29.75 23.172-48h287.313c-7.125,27.57-32.211,48-61.977,48z"/>
    <path d="m176,288h-32c-8.844,0-16,7.164-16,16s7.156,16 16,16h32c26.469,0 48-21.531 48-48 0-12.338-4.809-23.488-12.484-32 7.676-8.512 12.484-19.662 12.484-32 0-26.469-21.531-48-48-48-8.828,0-16-7.18-16-16s7.172-16 16-16h32c8.844,0 16-7.164 16-16s-7.156-16-16-16h-32c-26.469,0-48,21.531-48,48 0,12.338 4.809,23.488 12.484,32-7.675,8.512-12.484,19.662-12.484,32 0,26.469 21.531,48 48,48 8.828,0 16,7.18 16,16s-7.172,16-16,16zm-16-80c0-8.82 7.172-16 16-16s16,7.18 16,16-7.172,16-16,16-16-7.18-16-16z"/>
  </g>
</svg>
